# xmcd
#
# Track frame offsets:
#	150
#	15451
#	35974
#	49359
#	64955
#	84274
#	108343
#	122748
#	140788
#	160032
#	184741
#	197000
#	220183
#	239381
#
# Disc length: 3403 seconds
#
# Revision: 0
# Processed by: cddbd v1.5.2PL0 Copyright (c) Steve Scherf et al.
# Submitted via: EasyCDDAExtractor 2010.4.0.0
#
DISCID=c90d490e
DTITLE=Various Artist - Boozoo Hoodoo - the Songs of Boozoo Chavis
DYEAR=2000
DGENRE=blues
TTITLE0=BeauSoleil - Bye bye jole
TTITLE1=The Iguanas - Dog hill
TTITLE2=Marcia Ball - Dance all night
TTITLE3=Steve Riley and the Mamou Playboys - Uncle Bud
TTITLE4=Poncho Chavis and the Magic Sounds - I'm going away
TTITLE5=Beau Jocque - Boogie woogie all night
TTITLE6=The Hackberry Ramblers and Rodney Crowell - Keep your dresstail down
TTITLE7=Sean Ardoin and ZydeKool - Leona had a party
TTITLE8=New Orleans Klezmer Allstars - Boozoo's breakdown
TTITLE9=Buckwheat Zydeco with Sonny Landreth and Paul "Lil' Buck" Sinegal - Make
TTITLE9=it to me
TTITLE10=The Hackberry Ramblers - Allons a Lafayette
TTITLE11=Keith Frank - Motor dude special
TTITLE12=Afroskull - Marksville slide
TTITLE13=Svare Forsland with Leigh "Lil' Queenie" Harris - Crying in the stree
TTITLE13=t
EXTD=
EXTT0=
EXTT1=
EXTT2=
EXTT3=
EXTT4=
EXTT5=
EXTT6=
EXTT7=
EXTT8=
EXTT9=
EXTT10=
EXTT11=
EXTT12=
EXTT13=
PLAYORDER=
